<?xml version="1.0" encoding="utf-8"?>
<!-- Generator: Adobe Illustrator 19.0.0, SVG Export Plug-In . SVG Version: 6.00 Build 0)  -->
<svg version="1.1" id="Layer_1" xmlns="http://www.w3.org/2000/svg" xmlns:xlink="http://www.w3.org/1999/xlink" x="0px" y="0px"
	 viewBox="0 0 64 64" style="enable-background:new 0 0 64 64;" xml:space="preserve">
<style type="text/css">
	.st0{fill:#FFFFFF;}
	.st1{enable-background:new    ;}
</style>
<path id="XMLID_8_" class="st0" d="M32,64C14.3,64,0,49.7,0,32S14.3,0,32,0s32,14.3,32,32S49.7,64,32,64z M32,2.6
	C15.7,2.6,2.6,15.7,2.6,32S15.7,61.4,32,61.4S61.4,48.3,61.4,32S48.3,2.6,32,2.6z"/>
<g class="st1">
	<g>
		<path class="st0" d="M21,52.8c-0.5,0-0.9-0.1-1.2-0.2c-0.3-0.1-0.6-0.3-0.8-0.6s-0.3-0.5-0.4-0.9c-0.1-0.3-0.1-0.7-0.1-1.2v-3
			c0-0.5,0-0.8,0.1-1.2c0.1-0.3,0.2-0.6,0.4-0.9c0.2-0.2,0.4-0.4,0.8-0.6s0.7-0.2,1.2-0.2c0.4,0,0.8,0.1,1.1,0.2s0.6,0.3,0.7,0.5
			c0.2,0.2,0.3,0.5,0.4,0.8c0.1,0.3,0.1,0.6,0.1,1v0.7h-1.8v-0.8c0-0.1,0-0.2,0-0.3c0-0.1,0-0.2,0-0.3c0-0.1,0-0.2-0.1-0.2
			c0-0.1-0.1-0.1-0.2-0.1c-0.1,0-0.2-0.1-0.3-0.1s-0.2,0-0.3,0.1c-0.1,0-0.1,0.1-0.2,0.2c0,0.1-0.1,0.1-0.1,0.2s0,0.2,0,0.3
			s0,0.2,0,0.3v3.9c0,0.3,0,0.6,0.1,0.8c0.1,0.2,0.3,0.3,0.5,0.3c0.1,0,0.2,0,0.3-0.1c0.1,0,0.1-0.1,0.2-0.1s0.1-0.1,0.1-0.2
			c0-0.1,0-0.2,0-0.3c0-0.1,0-0.2,0-0.3v-0.9h1.8v0.7c0,0.3,0,0.6-0.1,0.8c0,0.2-0.1,0.5-0.2,0.7c-0.1,0.2-0.3,0.4-0.4,0.5
			s-0.4,0.3-0.7,0.3C21.7,52.7,21.4,52.8,21,52.8z"/>
		<path class="st0" d="M25.4,52.6v-8.3h1.8v3.3h1.3v-3.3h1.8v8.3h-1.8V49h-1.3v3.6H25.4z"/>
		<path class="st0" d="M32.2,52.6l1.6-8.3h2.1l1.6,8.3h-1.7l-0.3-1.8h-1.2L34,52.6H32.2z M34.4,49.8h0.9l-0.4-3.2L34.4,49.8z"/>
		<path class="st0" d="M39.8,52.6v-6.9h-1.3v-1.4h4.4v1.4h-1.3v6.9H39.8z"/>
	</g>
</g>
<g id="XMLID_4_">
	<g>
		<path id="XMLID_26_" class="st0" d="M24.8,26.5c-4,0-7.2-3.2-7.2-7.2s3.2-7.2,7.2-7.2s7.2,3.2,7.2,7.2S28.8,26.5,24.8,26.5z
			 M24.8,14.6c-2.6,0-4.6,2-4.6,4.6s2,4.6,4.6,4.6s4.6-2,4.6-4.6C29.4,16.8,27.4,14.6,24.8,14.6z"/>
		<path id="XMLID_25_" class="st0" d="M35.6,39.3H14.1V38c0-7.8,4.9-14.1,10.8-14.1S35.6,30.2,35.6,38V39.3z M16.8,36.7H33
			c-0.5-5.8-4-10.2-8.1-10.2S17.2,31,16.8,36.7z"/>
	</g>
</g>
<g id="XMLID_5_">
	<g>
		<path id="XMLID_24_" class="st0" d="M41.3,22.5c-3.3,0-6-2.7-6-6s2.7-6,6-6s6,2.7,6,6S44.7,22.5,41.3,22.5z M41.3,12.9
			c-1.9,0-3.5,1.5-3.5,3.5s1.5,3.5,3.5,3.5c1.9,0,3.5-1.5,3.5-3.5S43.3,12.9,41.3,12.9z"/>
		<path id="XMLID_23_" class="st0" d="M50.3,32.9H32.4v-1.3c0-6.4,4-11.6,9-11.6c4.9,0,9,5.2,9,11.6V32.9z M35.1,30.3h12.7
			c-0.4-4.4-3.1-7.8-6.3-7.8S35.5,25.9,35.1,30.3z"/>
	</g>
</g>
</svg>
