<?xml version="1.0" encoding="utf-8"?>
<!-- Generator: Adobe Illustrator 17.0.0, SVG Export Plug-In . SVG Version: 6.00 Build 0)  -->
<!DOCTYPE svg PUBLIC "-//W3C//DTD SVG 1.1//EN" "http://www.w3.org/Graphics/SVG/1.1/DTD/svg11.dtd">
<svg version="1.1" id="Capa_1" xmlns="http://www.w3.org/2000/svg" xmlns:xlink="http://www.w3.org/1999/xlink" x="0px" y="0px"
	 width="23.639px" height="42.203px" viewBox="2.649 2.086 23.639 42.203" enable-background="new 2.649 2.086 23.639 42.203"
	 xml:space="preserve">
<g>
	<g>
		<path fill="#F04E4C" stroke="#F04E4C" stroke-width="0.5" stroke-miterlimit="10" d="M24.12,4.557
			c-1.202-1.202-2.793-1.859-4.49-1.859c-1.698,0-3.293,0.662-4.495,1.864l-0.628,0.628L13.87,4.552
			c-1.202-1.202-2.802-1.868-4.5-1.868c-1.693,0-3.289,0.662-4.486,1.859C3.683,5.744,3.021,7.34,3.026,9.037
			c0,1.698,0.667,3.289,1.868,4.49l9.137,9.137c0.127,0.127,0.297,0.195,0.463,0.195c0.166,0,0.336-0.063,0.463-0.19l9.156-9.123
			c1.202-1.202,1.864-2.797,1.864-4.495C25.979,7.354,25.322,5.758,24.12,4.557z M23.187,12.618l-8.694,8.66l-8.675-8.675
			c-0.954-0.954-1.479-2.218-1.479-3.566s0.521-2.612,1.474-3.561c0.949-0.949,2.214-1.474,3.557-1.474
			c1.348,0,2.617,0.526,3.571,1.479l1.1,1.1c0.258,0.258,0.671,0.258,0.929,0l1.09-1.09c0.954-0.954,2.223-1.479,3.566-1.479
			c1.343,0,2.608,0.526,3.561,1.474c0.954,0.954,1.474,2.218,1.474,3.566C24.666,10.4,24.14,11.665,23.187,12.618z"/>
	</g>
</g>
<g>
	<g>
		<g>
			<path fill="#46474C" stroke="#46474C" stroke-width="0.5" stroke-miterlimit="10" d="M24.12,25.682
				c-1.202-1.202-2.793-1.859-4.49-1.859c-1.698,0-3.293,0.662-4.495,1.864l-0.628,0.628l-0.637-0.637
				c-1.202-1.202-2.802-1.868-4.5-1.868c-1.693,0-3.289,0.662-4.486,1.859c-1.202,1.202-1.864,2.797-1.859,4.495
				c0,1.698,0.667,3.289,1.868,4.49l9.137,9.137c0.127,0.127,0.297,0.195,0.463,0.195c0.166,0,0.336-0.063,0.463-0.19l9.156-9.123
				c1.202-1.202,1.864-2.797,1.864-4.495C25.979,28.479,25.322,26.883,24.12,25.682z M23.187,33.743l-8.694,8.66l-8.675-8.675
				c-0.954-0.954-1.479-2.218-1.479-3.566s0.521-2.612,1.474-3.561c0.949-0.949,2.214-1.474,3.557-1.474
				c1.348,0,2.617,0.526,3.571,1.479l1.1,1.1c0.258,0.258,0.671,0.258,0.929,0l1.09-1.09c0.954-0.954,2.223-1.479,3.566-1.479
				c1.343,0,2.608,0.526,3.561,1.474c0.954,0.954,1.474,2.218,1.474,3.566C24.666,31.525,24.14,32.79,23.187,33.743z"/>
		</g>
	</g>
</g>
</svg>
