<?xml version="1.0" encoding="utf-8"?>
<!-- Generator: Adobe Illustrator 17.0.0, SVG Export Plug-In . SVG Version: 6.00 Build 0)  -->
<!DOCTYPE svg PUBLIC "-//W3C//DTD SVG 1.1//EN" "http://www.w3.org/Graphics/SVG/1.1/DTD/svg11.dtd">
<svg version="1.1" id="Layer_1" xmlns="http://www.w3.org/2000/svg" xmlns:xlink="http://www.w3.org/1999/xlink" x="0px" y="0px"
	 width="222.333px" height="51.833px" viewBox="0 0 222.333 51.833" enable-background="new 0 0 222.333 51.833"
	 xml:space="preserve">
<g>
	<g>
		<g>
			<path fill="#231F20" d="M77.335,36.849h-2.476c-0.275,0-0.499-0.226-0.499-0.501v-7.645h-7.097v7.645
				c0,0.276-0.223,0.501-0.5,0.501h-2.474c-0.277,0-0.5-0.226-0.5-0.501V18.756c0-0.273,0.223-0.472,0.5-0.472h2.474
				c0.277,0,0.5,0.199,0.5,0.472v6.898h7.097v-6.898c0-0.273,0.225-0.472,0.499-0.472h2.476c0.273,0,0.498,0.199,0.498,0.472v17.592
				C77.833,36.623,77.608,36.849,77.335,36.849z"/>
			<path fill="#231F20" d="M93.323,36.849h-5.546c-4.028,0-6.82-1.501-6.82-6.822V18.756c0-0.273,0.223-0.473,0.502-0.473h2.47
				c0.277,0,0.499,0.2,0.499,0.473v10.996c0,2.847,0.65,3.947,3.349,3.947h3.449V18.756c0-0.273,0.202-0.473,0.473-0.473h2.475
				c0.276,0,0.5,0.2,0.5,0.473v16.567C94.674,36.373,94.233,36.849,93.323,36.849z"/>
			<path fill="#231F20" d="M124.524,21.182h-4.372v15.166c0,0.276-0.225,0.501-0.504,0.501h-2.472c-0.276,0-0.497-0.226-0.497-0.501
				V21.182h-4.376c-0.273,0-0.498-0.175-0.498-0.451v-1.975c0-0.273,0.224-0.473,0.498-0.473l12.222,0.001
				c0.273,0,0.497,0.199,0.497,0.472v1.975C125.021,21.006,124.797,21.182,124.524,21.182z"/>
			<path fill="#231F20" d="M130.125,36.849h-2.475c-0.276,0-0.502-0.226-0.502-0.501V18.756c0-0.273,0.226-0.472,0.502-0.472h2.475
				c0.274,0,0.499,0.199,0.499,0.472v17.592C130.624,36.623,130.4,36.849,130.125,36.849z"/>
			<path fill="#231F20" d="M145.763,36.849h-5.766c-2.695,0-6.378-1.574-6.378-7.471V25.78c0-5.925,3.791-7.496,6.769-7.497h5.375
				c0.328,0,0.474,0.2,0.474,0.524v1.924c0,0.375-0.124,0.525-0.578,0.525h-5.128c-1.678,0-3.417,0.974-3.417,4.524v3.471
				c0,3.135,1.134,4.697,4.152,4.697c0.502,0,1.002-0.014,1.574-0.049v-6.272c0-0.274,0.204-0.499,0.476-0.499h2.421
				c0.27,0,0.5,0.224,0.5,0.499v8.621C146.238,36.57,146.092,36.849,145.763,36.849z"/>
			<path fill="#231F20" d="M205.391,36.848h-4.911c-3.25,0.001-5.603-0.674-5.603-4.922v-8.722c0-4.246,2.353-4.921,5.603-4.92
				h4.911c0.382,0,0.5,0.173,0.5,0.523v1.924c0,0.276-0.222,0.501-0.5,0.501h-5.095c-1.445,0-1.975,0.498-1.975,2.149v2.448h6.775
				c0.272,0,0.499,0.226,0.499,0.499v1.951c0,0.273-0.227,0.499-0.499,0.499h-6.775v2.972c0,1.648,0.53,2.148,1.975,2.148h5.095
				c0.278,0,0.5,0.224,0.5,0.5v1.925C205.891,36.673,205.773,36.848,205.391,36.848z"/>
			<path fill-rule="evenodd" clip-rule="evenodd" fill="#231F20" d="M107.239,23.782c0-1.874-1.244-2.526-3.746-2.526h-2.224v5.521
				h2.224c2.575,0,3.746-0.624,3.746-2.824V23.782z M110.994,36.849h-3.052c-0.277,0-0.369-0.253-0.501-0.501l-3.441-6.771h-2.73
				v6.771c0,0.276-0.199,0.501-0.475,0.501h-2.495c-0.277,0-0.503-0.226-0.503-0.501V19.03c0-0.497,0.294-0.747,0.799-0.747h4.899
				c3.848,0,7.197,1.174,7.197,5.447v0.224c0,2.649-1.325,4.298-3.374,5.098l3.927,7.296
				C111.373,36.593,111.262,36.849,110.994,36.849z"/>
			<path fill-rule="evenodd" clip-rule="evenodd" fill="#231F20" d="M158.566,23.782c0-1.875-1.25-2.526-3.75-2.526h-2.222v5.521
				h2.222c2.576,0,3.75-0.624,3.75-2.824V23.782z M162.317,36.849h-3.048c-0.274,0-0.37-0.253-0.499-0.502l-3.443-6.771h-2.734
				v6.771c0,0.276-0.199,0.502-0.476,0.502h-2.496c-0.276,0-0.499-0.226-0.499-0.502V19.03c0-0.497,0.291-0.747,0.798-0.747h4.896
				c3.846,0,7.198,1.174,7.198,5.447v0.224c0,2.649-1.327,4.298-3.375,5.098l3.928,7.296
				C162.698,36.593,162.589,36.849,162.317,36.849z"/>
			<path fill="#231F20" d="M166.041,36.849h5.545c4.023,0,6.82-1.501,6.82-6.823v-11.27c0-0.273-0.226-0.473-0.499-0.473h-2.475
				c-0.272,0-0.5,0.2-0.5,0.473v10.996c0,2.847-0.649,3.947-3.346,3.947h-3.451V18.756c0-0.273-0.197-0.473-0.475-0.473h-2.472
				c-0.274,0-0.499,0.2-0.499,0.473v16.567C164.689,36.373,165.126,36.849,166.041,36.849z"/>
			<path fill="#231F20" d="M193.001,21.182h-4.376v15.165c0,0.276-0.23,0.502-0.499,0.502h-2.474c-0.275,0-0.501-0.226-0.501-0.502
				V21.182h-4.374c-0.268,0-0.499-0.176-0.499-0.452v-1.975c0-0.273,0.23-0.473,0.499-0.473h12.224c0.27,0,0.495,0.2,0.495,0.473
				v1.975C193.496,21.006,193.271,21.182,193.001,21.182z"/>
			<path fill="#231F20" d="M209.387,18.283l5.647-0.001c4.027,0,6.725,1.498,6.725,6.82V36.37c0,0.277-0.23,0.479-0.5,0.479h-2.476
				c-0.275,0-0.502-0.201-0.502-0.479V25.378c0-2.85-0.813-3.946-3.512-3.946h-3.283V36.37c0,0.277-0.201,0.479-0.472,0.479
				l-2.48-0.001c-0.273,0-0.495-0.2-0.495-0.478V19.803C208.041,18.756,208.478,18.283,209.387,18.283z"/>
		</g>
	</g>
	<g>
		<g>
			<path fill="#EC2F27" d="M34.324,46.132c-7.99,0-12.783-4.251-18.833-4.251c-2.627,0-5.1,0.672-7.25,1.85
				c4.565,4.595,10.892,7.44,17.883,7.44c8.158,0,14.234-3.67,18.194-7.796l-0.038,0.029C41.361,45.138,37.961,46.132,34.324,46.132
				z"/>
			<path fill="#EC2F27" d="M36.791,43.849c5.571,0,10.373-3.305,12.551-8.062l-0.061,0.161c1.325-3.065,2.067-6.447,2.067-9.998
				c0-13.929-11.296-25.217-25.225-25.217c-13.927,0-25.222,11.289-25.222,25.217c0,4.781,1.333,9.248,3.641,13.054
				c2.502-1.446,5.425-2.284,8.525-2.284C22.639,36.721,28.391,43.849,36.791,43.849z"/>
			<g>
				<rect x="32.723" y="9.23" fill-rule="evenodd" clip-rule="evenodd" fill="#FFFFFF" width="6.463" height="27.619"/>
			</g>
			<path fill="#FFFFFF" d="M35.289,44.799"/>
			<path fill="#FFFFFF" d="M13.067,36.721c-3.1,0-6.023,0.839-8.525,2.284c1.046,1.722,2.285,3.308,3.698,4.726
				c2.15-1.178,4.623-1.85,7.25-1.85c6.05,0,10.843,4.251,18.833,4.251c3.637,0,7.038-0.994,9.956-2.728l0.038-0.029
				c1.571-1.634,2.81-3.342,3.713-4.922c0.466-0.807,0.877-1.643,1.251-2.504l0.061-0.161c-2.177,4.756-6.98,8.062-12.551,8.062
				c-8.351,0-14.089-7.053-23.574-7.128l0,0l19.506-16.526H19.526V9.23h-6.458L13.067,36.721z"/>
		</g>
	</g>
</g>
</svg>
